<?xml version="1.0" encoding="utf-8"?>
<!-- Generator: Adobe Illustrator 21.0.0, SVG Export Plug-In . SVG Version: 6.00 Build 0)  -->
<svg version="1.1" id="Ebene_1" xmlns="http://www.w3.org/2000/svg" xmlns:xlink="http://www.w3.org/1999/xlink" x="0px" y="0px"
	 viewBox="0 0 146.7 78.8" style="enable-background:new 0 0 146.7 78.8;" xml:space="preserve">
<style type="text/css">
	.st0{fill:none;stroke:#000000;stroke-width:0.5;}
	.st1{clip-path:url(#SVGID_2_);fill:url(#SVGID_3_);}
	.st2{clip-path:url(#SVGID_5_);fill:url(#SVGID_6_);}
	.st3{opacity:0.5;}
	.st4{clip-path:url(#SVGID_8_);fill:#FFFFFF;}
	.st5{clip-path:url(#SVGID_10_);fill:#FFFFFF;}
	.st6{clip-path:url(#SVGID_12_);fill:#FFFFFF;}
	.st7{clip-path:url(#SVGID_14_);fill:#FFFFFF;}
	.st8{enable-background:new    ;}
	.st9{fill:none;stroke:#000000;stroke-width:1.324;}
</style>
<g>
	<path class="st0" d="M65.6,16.3l-0.4-3.7 M56.1,20.9l-2.8-3 M74,18l1.6-3.3 M79.4,23.6l2.9-2.2 M81.6,34.6l4.4,0.6 M76,42.7
		l3.1,3.4 M52.5,36.4l-4,1.1 M53.3,27.7l-6.2-0.9 M62.4,45.5l-2.3,9.9"/>
	<g>
		<g>
			<defs>
				<path id="SVGID_1_" d="M57.1,54.1c-0.8,1.6-0.2,3.6,1.4,4.4c1.6,0.8,3.6,0.2,4.4-1.4c0.8-1.6,0.2-3.6-1.4-4.4
					c-0.5-0.2-1-0.4-1.5-0.4C58.8,52.3,57.7,53,57.1,54.1 M78.9,44.9c-1,0.5-1.5,1.8-1,2.8s1.8,1.5,2.8,1s1.5-1.8,1-2.8
					c-0.4-0.8-1.1-1.2-1.9-1.2C79.5,44.7,79.2,44.7,78.9,44.9 M46.5,36.1c-1,0.5-1.4,1.8-0.9,2.8s1.8,1.4,2.8,0.9s1.4-1.8,0.9-2.8
					c-0.4-0.7-1.1-1.1-1.9-1.1C47.1,35.9,46.8,36,46.5,36.1 M84,34.9c-0.1,1.2,0.8,2.2,2,2.2c1.2,0.1,2.2-0.8,2.2-2
					c0.1-1.2-0.8-2.2-2-2.2h-0.1C84.9,32.9,84,33.8,84,34.9 M46.6,24.5c-1.2,0-2.1,1-2,2.2c0,1.2,1,2.1,2.2,2c1.2,0,2.1-1,2-2.2
					C48.7,25.4,47.8,24.5,46.6,24.5L46.6,24.5 M82,18.1c-1.3,0.9-1.5,2.7-0.6,4s2.7,1.5,4,0.6s1.5-2.7,0.6-4
					c-0.6-0.8-1.4-1.2-2.3-1.2C83.1,17.5,82.5,17.7,82,18.1 M51.9,13.5c-1.8,0-3.2,1.5-3.1,3.3c0,1.8,1.5,3.2,3.3,3.1
					c1.8,0,3.2-1.5,3.1-3.3C55.2,14.9,53.7,13.5,51.9,13.5C52,13.5,51.9,13.5,51.9,13.5 M74.1,13c-0.5,1-0.1,2.3,1,2.8
					c1,0.5,2.3,0.1,2.8-1c0.5-1,0.1-2.3-1-2.8c-0.3-0.1-0.6-0.2-0.9-0.2C75.2,11.8,74.4,12.2,74.1,13 M64.8,7.2L64.8,7.2
					c-1.8,0-3.2,1.5-3.2,3.3s1.5,3.2,3.3,3.1c1.8,0,3.2-1.5,3.1-3.3C68,8.6,66.6,7.3,64.8,7.2L64.8,7.2z"/>
			</defs>
			<clipPath id="SVGID_2_">
				<use xlink:href="#SVGID_1_"  style="overflow:visible;"/>
			</clipPath>
			
				<linearGradient id="SVGID_3_" gradientUnits="userSpaceOnUse" x1="-452.7324" y1="-187.2518" x2="-451.7324" y2="-187.2518" gradientTransform="matrix(-36.2282 -55.7866 -55.7866 36.2282 -26763.4863 -18411.6621)">
				<stop  offset="0" style="stop-color:#3FB498"/>
				<stop  offset="0.3606" style="stop-color:#3FB498"/>
				<stop  offset="0.4542" style="stop-color:#37AF96"/>
				<stop  offset="0.6008" style="stop-color:#19A091"/>
				<stop  offset="0.782" style="stop-color:#008A87"/>
				<stop  offset="0.9891" style="stop-color:#006D7A"/>
				<stop  offset="1" style="stop-color:#006B79"/>
			</linearGradient>
			<polygon class="st1" points="112,43.8 75.2,-12.7 20.7,22.7 57.5,79.2 			"/>
		</g>
	</g>
	<g>
		<g>
			<defs>
				<path id="SVGID_4_" d="M52.3,25.2c-3.5,7.9,0.2,17.2,8.1,20.6c7.9,3.5,17.2-0.2,20.6-8.1c3.5-7.9-0.2-17.2-8.1-20.6
					c-2-0.9-4.2-1.3-6.2-1.3C60.7,15.7,54.9,19.2,52.3,25.2"/>
			</defs>
			<clipPath id="SVGID_5_">
				<use xlink:href="#SVGID_4_"  style="overflow:visible;"/>
			</clipPath>
			
				<linearGradient id="SVGID_6_" gradientUnits="userSpaceOnUse" x1="-446.7527" y1="-168.689" x2="-445.7527" y2="-168.689" gradientTransform="matrix(3.000000e-07 -41.2368 41.2368 3.000000e-07 7022.894 -18370.6328)">
				<stop  offset="0" style="stop-color:#3FB498"/>
				<stop  offset="0.3606" style="stop-color:#3FB498"/>
				<stop  offset="0.4542" style="stop-color:#37AF96"/>
				<stop  offset="0.6008" style="stop-color:#19A091"/>
				<stop  offset="0.782" style="stop-color:#008A87"/>
				<stop  offset="0.9891" style="stop-color:#006D7A"/>
				<stop  offset="1" style="stop-color:#006B79"/>
			</linearGradient>
			<rect x="48.9" y="15.7" class="st2" width="35.6" height="33.5"/>
		</g>
	</g>
	<g>
		<g class="st3">
			<g>
				<g>
					<defs>
						<rect id="SVGID_7_" x="34.2" y="-0.4" width="67.4" height="51.9"/>
					</defs>
					<clipPath id="SVGID_8_">
						<use xlink:href="#SVGID_7_"  style="overflow:visible;"/>
					</clipPath>
					<path class="st4" d="M53.9,36.7c-0.4,0.2-0.7,0.3-1,0.4c0.1,0.3,0.2,0.6,0.3,0.9c0.2-0.1,0.4-0.1,0.6-0.2
						c0,1.2,0.1,2.2,0.3,3.1c0.2,0.1,0.5,0.3,0.7,0.4c-0.3-1.1-0.3-2.6-0.3-4.3C54.3,37,54.1,36.8,53.9,36.7 M55.5,39.9
						c0,0.8,0.2,1.3,0.6,1.7c0.3,0.4,0.8,0.7,1.3,0.9c0.6,0.2,1,0.3,1.3,0.1s0.4-0.6,0.5-1.4c0-0.8-0.1-1.5-0.4-2
						c-0.3-0.5-0.8-0.9-1.4-1.1c-0.6-0.2-1.1-0.2-1.4,0.1C55.6,38.5,55.5,39.1,55.5,39.9 M57.9,41.9c-0.1,0.1-0.3,0.2-0.6,0
						c-0.3-0.1-0.5-0.3-0.6-0.5s-0.2-0.6-0.3-1.1c0-0.5,0-0.9,0.2-1.1c0.1-0.2,0.3-0.2,0.6-0.1c0.3,0.1,0.5,0.3,0.6,0.6
						S58,40.4,58,41C58.1,41.4,58.1,41.8,57.9,41.9 M62.1,39.6c-0.7,0.2-1.4,0.4-2,0.6c0.2,0.3,0.3,0.6,0.5,0.9
						c0.4-0.1,0.8-0.2,1.3-0.3c-0.2,1.2-0.3,2.3-0.3,3.1c0.4,0.1,0.7,0.2,1.1,0.3c0.1-1,0.3-2.5,0.6-4.2
						C62.8,39.8,62.4,39.7,62.1,39.6 M64.3,42.6c-0.1,0.8,0,1.3,0.3,1.6s0.8,0.5,1.5,0.6s1.2,0.1,1.7-0.1c0.4-0.2,0.8-0.6,1-1.4
						c0.3-0.8,0.3-1.4,0-1.9s-0.8-0.8-1.6-0.9c-0.8-0.1-1.4,0-1.9,0.3C64.7,41.2,64.4,41.8,64.3,42.6 M67,44.2
						c-0.2,0.1-0.5,0.2-0.8,0.1c-0.3-0.1-0.6-0.2-0.7-0.4s-0.1-0.5,0-1.1c0.1-0.5,0.3-0.9,0.5-1.1c0.2-0.2,0.5-0.3,0.9-0.2
						s0.6,0.2,0.7,0.5s0.1,0.7-0.1,1.2S67.2,44,67,44.2 M72.1,41.4c-0.7,0.3-1.5,0.6-2.2,0.9c0.1,0.3,0.2,0.5,0.3,0.8
						c0.5-0.2,0.9-0.3,1.4-0.5c-0.4,1.2-0.8,2.1-1.3,2.8c0.3,0,0.7,0,1,0.1c0.6-0.9,1.2-2.3,1.8-3.9C72.8,41.4,72.5,41.4,72.1,41.4
						 M73.5,43.7c-0.3,0.7-0.4,1.1-0.3,1.4c0.1,0.2,0.5,0.3,1,0.3s1-0.2,1.4-0.5s0.8-0.7,1.1-1.4c0.3-0.7,0.5-1.2,0.4-1.6
						c-0.1-0.3-0.4-0.5-0.9-0.5s-1.1,0.2-1.5,0.6C74.3,42.4,73.9,43,73.5,43.7 M75.3,44.6c-0.2,0.2-0.4,0.3-0.7,0.3
						c-0.3,0-0.4,0-0.4-0.2s0.1-0.5,0.3-0.9c0.2-0.5,0.5-0.9,0.7-1.1c0.2-0.2,0.5-0.3,0.7-0.4s0.4,0.1,0.4,0.3s-0.1,0.6-0.3,1
						C75.8,44.1,75.5,44.4,75.3,44.6"/>
				</g>
				<g>
					<defs>
						<rect id="SVGID_9_" x="34.2" y="-0.4" width="67.4" height="51.9"/>
					</defs>
					<clipPath id="SVGID_10_">
						<use xlink:href="#SVGID_9_"  style="overflow:visible;"/>
					</clipPath>
					<path class="st5" d="M53.1,32c-0.1,0.9-0.1,1.6,0,2.1s0.4,0.8,0.8,1.1c0.4,0.2,0.8,0.2,1.1-0.2c0.3-0.3,0.5-1,0.7-2
						c0.1-1,0.1-1.9,0-2.4c-0.2-0.5-0.5-0.9-1-1c-0.4-0.1-0.8,0.1-1,0.4C53.4,30.4,53.2,31.1,53.1,32 M54.5,34
						c-0.1,0.2-0.3,0.3-0.5,0.2s-0.3-0.3-0.4-0.6c-0.1-0.3,0-0.8,0-1.4c0.1-0.7,0.2-1.1,0.3-1.3c0.1-0.2,0.3-0.3,0.5-0.3
						c0.2,0.1,0.4,0.2,0.4,0.5c0.1,0.3,0,0.8-0.1,1.5C54.7,33.3,54.6,33.8,54.5,34 M58.5,30.5c-0.7,0.3-1.3,0.6-1.9,0.9
						c0.1,0.3,0.2,0.7,0.3,1c0.4-0.2,0.8-0.4,1.2-0.6c-0.3,1.5-0.5,3.1-0.6,4.5c0.4,0.1,0.7,0.2,1.1,0.3c0.2-1.9,0.5-3.9,1-6
						C59.2,30.7,58.8,30.6,58.5,30.5 M60.4,34.2c-0.2,1.1-0.1,1.9,0.2,2.5s0.8,0.9,1.6,1.1c0.8,0.2,1.4,0.1,1.9-0.3
						c0.5-0.4,0.8-1.1,1.1-2.3c0.2-1.2,0.2-2.1-0.1-2.7c-0.3-0.6-0.9-1-1.7-1.2s-1.5,0-2,0.4C60.9,32.3,60.6,33.1,60.4,34.2
						 M63.3,36.5c-0.2,0.3-0.5,0.3-0.9,0.3c-0.4-0.1-0.6-0.3-0.7-0.6c-0.1-0.3-0.1-0.9,0-1.7s0.3-1.3,0.5-1.6s0.5-0.4,0.9-0.3
						c0.4,0.1,0.6,0.3,0.7,0.7c0.1,0.4,0.1,0.9-0.1,1.7C63.7,35.8,63.5,36.3,63.3,36.5 M68.9,32.7c-0.8,0.3-1.6,0.7-2.4,1
						c0.1,0.4,0.3,0.8,0.4,1.1c0.5-0.2,1.1-0.4,1.6-0.6c-0.3,1.6-0.7,3.2-1,4.7c0.4,0.1,0.9,0.2,1.3,0.2c0.5-1.9,0.9-4,1.4-6.1
						C69.8,32.9,69.4,32.8,68.9,32.7 M71,36.4c-0.3,1.1-0.3,1.9,0,2.4s0.8,0.8,1.5,0.9c0.7,0.1,1.3-0.1,1.8-0.5s0.8-1.1,1.1-2.2
						c0.3-1.1,0.3-1.9,0.1-2.4c-0.2-0.6-0.7-0.9-1.4-1.1c-0.7-0.1-1.4,0-1.9,0.4C71.7,34.5,71.3,35.3,71,36.4 M73.7,38.4
						c-0.2,0.3-0.5,0.4-0.9,0.3c-0.3,0-0.6-0.2-0.6-0.5c-0.1-0.3,0-0.8,0.1-1.6c0.2-0.8,0.4-1.3,0.6-1.6s0.5-0.4,0.9-0.3
						c0.4,0.1,0.6,0.3,0.6,0.6c0.1,0.3,0,0.9-0.2,1.6C74.1,37.7,73.9,38.1,73.7,38.4 M78.3,34.5c-0.5,0.3-1.1,0.7-1.8,1
						c0.1,0.3,0.2,0.6,0.2,1c0.4-0.2,0.8-0.4,1.1-0.7c-0.3,1.4-0.7,2.8-1.2,4.1c0.3,0,0.6,0,0.8,0c0.6-1.6,1-3.4,1.4-5.3
						C78.8,34.6,78.6,34.6,78.3,34.5"/>
				</g>
				<g>
					<defs>
						<rect id="SVGID_11_" x="34.2" y="-0.4" width="67.4" height="51.9"/>
					</defs>
					<clipPath id="SVGID_12_">
						<use xlink:href="#SVGID_11_"  style="overflow:visible;"/>
					</clipPath>
					<path class="st6" d="M56.5,22.7c-0.5,0.4-1,0.8-1.4,1.2c0,0.2,0,0.5,0,0.7c0.3-0.2,0.6-0.5,0.9-0.7c-0.4,1.3-0.8,2.6-1.1,4
						c0.2,0,0.5,0.1,0.8,0.1c0.4-1.9,0.9-3.7,1.5-5.3C57,22.7,56.8,22.7,56.5,22.7 M57.6,25.4c-0.3,1-0.3,1.8-0.1,2.3s0.6,0.8,1.3,1
						c0.7,0.1,1.3,0,1.8-0.4s0.9-1.2,1.1-2.3c0.3-1.1,0.3-1.9,0-2.4c-0.2-0.5-0.7-0.8-1.4-0.8c-0.7-0.1-1.2,0.1-1.7,0.5
						C58.2,23.7,57.8,24.4,57.6,25.4 M59.8,27.2c-0.2,0.3-0.5,0.4-0.8,0.3s-0.5-0.2-0.6-0.5s0-0.8,0.2-1.5s0.4-1.2,0.6-1.4
						c0.2-0.3,0.5-0.4,0.8-0.3c0.3,0,0.5,0.2,0.6,0.5s0,0.8-0.2,1.5C60.3,26.4,60.1,26.9,59.8,27.2 M65.3,23.4
						c-0.8,0.3-1.5,0.6-2.3,0.9c0.1,0.3,0.2,0.7,0.3,1c0.5-0.2,1-0.4,1.5-0.6c-0.4,1.5-0.7,3.1-1.1,4.7c0.4,0.1,0.9,0.2,1.3,0.3
						c0.4-2.1,0.9-4.2,1.3-6.1C66.1,23.6,65.7,23.5,65.3,23.4 M67.4,26.9c-0.2,1.1-0.2,2,0.1,2.6c0.3,0.6,0.9,1,1.7,1.2
						c0.8,0.2,1.5,0,2-0.4s0.9-1.2,1-2.3c0.2-1.1,0.1-2-0.2-2.5c-0.3-0.6-0.9-0.9-1.6-1.1c-0.8-0.2-1.4-0.1-1.9,0.3
						S67.6,25.8,67.4,26.9 M70.4,29.2c-0.2,0.3-0.5,0.4-0.9,0.3s-0.7-0.3-0.8-0.7c-0.1-0.4-0.1-0.9,0.1-1.7c0.2-0.8,0.3-1.3,0.6-1.5
						c0.2-0.3,0.5-0.3,0.9-0.3c0.4,0.1,0.6,0.3,0.7,0.6c0.1,0.3,0.1,0.9,0,1.6C70.8,28.4,70.6,29,70.4,29.2 M75.4,25.8
						c-0.6,0.2-1.3,0.5-2,0.7c0.1,0.4,0.3,0.7,0.4,1.1c0.5-0.2,0.9-0.3,1.3-0.5c-0.2,1.5-0.4,3-0.7,4.6c0.4,0.1,0.8,0.2,1.2,0.3
						c0.4-2,0.7-4.1,0.8-5.9C76.1,26,75.8,25.9,75.4,25.8 M77.4,29.3c-0.1,1.1-0.1,1.9,0.1,2.4c0.2,0.5,0.6,0.9,1.2,1
						c0.5,0.1,0.9,0,1.2-0.4c0.3-0.4,0.5-1,0.6-2s0.1-1.7-0.1-2.2s-0.5-0.9-1-1.1s-0.9-0.2-1.3,0.2C77.7,27.6,77.5,28.3,77.4,29.3
						 M79.4,31.5c-0.1,0.2-0.3,0.3-0.6,0.3c-0.2-0.1-0.4-0.3-0.5-0.6c-0.1-0.3-0.1-0.8,0-1.5s0.2-1.2,0.3-1.4
						c0.1-0.2,0.3-0.3,0.6-0.2c0.2,0.1,0.4,0.3,0.5,0.6c0.1,0.3,0.1,0.8,0,1.5C79.6,30.8,79.5,31.2,79.4,31.5"/>
				</g>
				<g>
					<defs>
						<rect id="SVGID_13_" x="34.2" y="-0.4" width="67.4" height="51.9"/>
					</defs>
					<clipPath id="SVGID_14_">
						<use xlink:href="#SVGID_13_"  style="overflow:visible;"/>
					</clipPath>
					<path class="st7" d="M56.6,19.5c-0.3,0.7-0.5,1.2-0.4,1.4c0.1,0.3,0.3,0.4,0.8,0.3s1-0.3,1.4-0.6c0.4-0.4,0.8-0.9,1.2-1.6
						s0.5-1.1,0.4-1.3c-0.1-0.2-0.4-0.3-0.9-0.2c-0.5,0.1-0.9,0.2-1.3,0.5C57.3,18.4,57,18.9,56.6,19.5 M58,20.2
						c-0.2,0.2-0.4,0.3-0.7,0.4c-0.2,0-0.3,0-0.3-0.2s0.1-0.5,0.4-1c0.2-0.5,0.5-0.7,0.7-0.9c0.2-0.2,0.4-0.3,0.6-0.3
						c0.2,0,0.4,0,0.4,0.2c0,0.1-0.1,0.4-0.4,0.9C58.4,19.6,58.2,20,58,20.2 M62.7,17.5c-0.7,0.2-1.3,0.4-1.9,0.6
						c0,0.2,0.1,0.3,0.1,0.5c0.4-0.2,0.9-0.3,1.3-0.4c-0.5,0.8-0.9,1.8-1.4,3c0.4,0,0.7,0,1.1,0.1c0.6-1.6,1.1-2.9,1.7-3.7
						C63.3,17.5,63,17.5,62.7,17.5 M64.1,19.3C63.8,20,63.8,20.6,64,21c0.2,0.4,0.8,0.7,1.5,0.8c0.8,0.1,1.4,0,1.9-0.3
						s0.8-0.9,1-1.6s0.1-1.2-0.2-1.5c-0.3-0.3-0.7-0.5-1.4-0.6c-0.7-0.1-1.2-0.1-1.6,0.1C64.8,18.2,64.4,18.6,64.1,19.3 M66.7,20.7
						c-0.2,0.2-0.5,0.3-0.9,0.2c-0.4-0.1-0.6-0.2-0.7-0.4c-0.1-0.2,0-0.6,0.1-1.1c0.2-0.5,0.4-0.8,0.6-0.9s0.5-0.2,0.8-0.1
						c0.3,0,0.5,0.2,0.6,0.3c0.1,0.2,0.1,0.5-0.1,1C67.1,20.1,66.9,20.5,66.7,20.7 M71.4,18.8c-0.6,0.1-1.2,0.1-1.8,0.3
						c0.1,0.2,0.3,0.4,0.4,0.6c0.4-0.1,0.9-0.2,1.3-0.2c-0.1,0.8-0.3,2-0.5,3.3c0.4,0.1,0.8,0.2,1.2,0.3c0.2-1.7,0.4-3.1,0.4-4
						C72,18.9,71.7,18.8,71.4,18.8 M73.6,21.1c0,0.8,0.1,1.4,0.4,1.9s0.8,0.9,1.5,1.1s1.2,0.2,1.5-0.1c0.3-0.3,0.5-0.8,0.4-1.6
						c0-0.8-0.3-1.3-0.6-1.7c-0.3-0.4-0.8-0.7-1.4-0.9c-0.6-0.2-1-0.2-1.3-0.1C73.8,20,73.6,20.3,73.6,21.1 M76.2,23.1
						c-0.1,0.2-0.4,0.2-0.7,0.1c-0.3-0.1-0.5-0.3-0.7-0.6c-0.1-0.3-0.2-0.7-0.2-1.2s0.1-0.8,0.2-0.9s0.3-0.1,0.6,0s0.5,0.3,0.7,0.5
						c0.1,0.2,0.2,0.6,0.3,1.1C76.4,22.5,76.4,22.9,76.2,23.1 M79.1,21.4c-0.3,0-0.7,0.1-1.1,0.1c0.2,0.2,0.3,0.5,0.5,0.8
						c0.3,0,0.5-0.1,0.8-0.1c0.2,0.9,0.2,2.1,0.2,3.3c0.3,0.1,0.5,0.3,0.8,0.4c0-1.6-0.1-3-0.4-4.1C79.5,21.7,79.3,21.6,79.1,21.4"
						/>
				</g>
			</g>
		</g>
		<g class="st8">
			<path d="M11.4,47.3v-7.1h4.4v0.7h-3.7v2.5h3.1v0.7h-3.1v2.6h3.7v0.7H11.4z"/>
			<path d="M20.4,47.3v-0.5c-0.3,0.4-0.8,0.6-1.4,0.6c-0.5,0-1-0.2-1.3-0.5c-0.3-0.3-0.5-0.8-0.5-1.4v-3.1H18v3
				c0,0.9,0.5,1.3,1.2,1.3c0.7,0,1.2-0.4,1.2-1.3v-3h0.7v4.9H20.4z"/>
		</g>
		<g class="st8">
			<path d="M25.7,43.3c-0.3-0.3-0.5-0.4-0.8-0.4c-0.7,0-1.2,0.6-1.2,1.3v3h-0.7v-4.9h0.7V43c0.3-0.4,0.8-0.7,1.4-0.7
				c0.5,0,0.8,0.1,1.2,0.5L25.7,43.3z"/>
		</g>
		<g class="st8">
			<path d="M30,46.8c-0.3,0.3-0.8,0.6-1.4,0.6s-1.1-0.2-1.4-0.6c-0.5-0.5-0.6-1.2-0.6-2c0-0.8,0.1-1.4,0.6-2
				c0.3-0.3,0.8-0.6,1.4-0.6s1.1,0.2,1.4,0.6c0.5,0.5,0.6,1.2,0.6,2C30.6,45.6,30.5,46.3,30,46.8z M29.5,43.3
				c-0.2-0.2-0.5-0.4-0.9-0.4s-0.7,0.1-0.9,0.4c-0.4,0.4-0.4,1-0.4,1.5s0,1.2,0.4,1.5c0.2,0.2,0.5,0.4,0.9,0.4s0.7-0.1,0.9-0.4
				c0.4-0.4,0.4-1,0.4-1.5S29.8,43.7,29.5,43.3z"/>
			<path d="M35.4,46.9c-0.3,0.3-0.7,0.4-1.2,0.4c-0.5,0-1-0.1-1.4-0.6v2.8h-0.7v-7.1h0.7V43c0.4-0.5,0.8-0.6,1.4-0.6
				c0.5,0,0.9,0.2,1.2,0.4c0.5,0.5,0.6,1.3,0.6,2.1S35.9,46.4,35.4,46.9z M34.1,43c-1.1,0-1.2,0.9-1.2,1.9c0,1,0.2,1.9,1.2,1.9
				s1.2-0.9,1.2-1.9C35.3,43.9,35.1,43,34.1,43z"/>
			<path d="M38,45c0,1.1,0.5,1.7,1.4,1.7c0.6,0,0.9-0.2,1.3-0.6l0.5,0.4c-0.5,0.5-1,0.8-1.8,0.8c-1.3,0-2.1-0.8-2.1-2.5
				c0-1.6,0.8-2.5,2-2.5c1.3,0,2,0.9,2,2.4V45H38z M40.5,43.7c-0.2-0.5-0.6-0.7-1.1-0.7s-1,0.3-1.1,0.7C38,43.9,38,44.1,38,44.5h2.6
				C40.6,44.1,40.6,43.9,40.5,43.7z"/>
			<path d="M45.6,47.3v-0.5c-0.4,0.4-0.8,0.5-1.4,0.5c-0.7,0-1.1-0.1-1.4-0.4c-0.2-0.2-0.4-0.6-0.4-1c0-0.9,0.6-1.4,1.7-1.4h1.5V44
				c0-0.7-0.4-1.1-1.3-1.1c-0.6,0-1,0.1-1.2,0.6l-0.5-0.5c0.4-0.6,0.9-0.7,1.7-0.7c1.3,0,2,0.6,2,1.6v3.3H45.6z M45.6,45h-1.4
				c-0.7,0-1.1,0.3-1.1,0.9c0,0.6,0.3,0.8,1.1,0.8c0.4,0,0.8,0,1.1-0.3c0.2-0.2,0.2-0.4,0.2-0.8V45z"/>
			<path d="M51.3,47.3v-3c0-0.9-0.5-1.3-1.2-1.3c-0.7,0-1.2,0.5-1.2,1.3v3h-0.7v-4.9h0.7v0.5c0.3-0.4,0.8-0.6,1.4-0.6
				c0.5,0,1,0.2,1.3,0.5c0.3,0.3,0.5,0.8,0.5,1.4v3.1H51.3z"/>
		</g>
		<g class="st8">
			<path d="M14.2,59.3h-1.1l-2.6-7.8h1.6l1.6,5.1l1.6-5.1h1.6L14.2,59.3z"/>
			<path d="M17.8,59.3v-7.8h1.5v7.8H17.8z"/>
		</g>
		<g class="st8">
			<path d="M25.4,59.3l-1.5-3.1h-1.1v3.1h-1.5v-7.8h3.1c1.6,0,2.5,1.1,2.5,2.4c0,1.1-0.7,1.8-1.4,2.1l1.7,3.4H25.4z M24.2,52.8h-1.4
				v2.1h1.4c0.7,0,1.1-0.4,1.1-1C25.4,53.3,24.9,52.8,24.2,52.8z"/>
		</g>
		<g class="st8">
			<path d="M31.3,59.4c-1.6,0-2.9-1.1-2.9-2.8v-5.1H30v5.1c0,0.9,0.5,1.4,1.4,1.4c0.8,0,1.4-0.5,1.4-1.4v-5.1h1.5v5.1
				C34.2,58.3,32.9,59.4,31.3,59.4z"/>
		</g>
		<g class="st8">
			<path d="M38.2,59.4c-1.2,0-2.1-0.3-2.9-1l1-1c0.5,0.5,1.2,0.7,1.9,0.7c0.9,0,1.4-0.3,1.4-1c0-0.3-0.1-0.5-0.2-0.7
				c-0.2-0.1-0.3-0.2-0.7-0.3L37.8,56c-0.7-0.1-1.2-0.3-1.5-0.6c-0.4-0.4-0.6-0.9-0.6-1.5c0-1.4,1-2.4,2.7-2.4
				c1.1,0,1.9,0.3,2.5,0.9l-1,1c-0.5-0.5-1.1-0.5-1.6-0.5c-0.8,0-1.2,0.5-1.2,1c0,0.2,0.1,0.4,0.2,0.6c0.2,0.1,0.4,0.3,0.7,0.3
				l0.9,0.1c0.7,0.1,1.2,0.3,1.5,0.6c0.4,0.4,0.6,1,0.6,1.7C41.1,58.5,39.9,59.4,38.2,59.4z"/>
		</g>
		<g class="st8">
			<path d="M48.6,59.3h-3.3v-7.8h3.1c1.5,0,2.4,0.9,2.4,2.2c0,0.9-0.6,1.4-1,1.6c0.5,0.2,1.1,0.7,1.1,1.8
				C51,58.5,49.9,59.3,48.6,59.3z M48.3,52.8h-1.5v1.8h1.5c0.6,0,1-0.4,1-0.9S48.9,52.8,48.3,52.8z M48.4,56h-1.6v1.9h1.6
				c0.7,0,1-0.4,1-1C49.4,56.4,49.1,56,48.4,56z"/>
		</g>
		<g class="st8">
			<path d="M52.6,59.3v-7.8h1.5v7.8H52.6z"/>
		</g>
		<g class="st8">
			<path d="M65.8,59.3v-7.8h1.5v7.8H65.8z"/>
		</g>
		<g class="st8">
			<path d="M73.9,59.3l-3.1-4.8v4.8h-1.5v-7.8h1.4l3.1,4.8v-4.8h1.5v7.8H73.9z"/>
		</g>
		<g class="st8">
			<path d="M78.7,52.8v1.9h3.1v1.4h-3.1v3.2h-1.5v-7.8h5.2v1.4H78.7z"/>
		</g>
		<g class="st8">
			<path d="M88.3,58.5c-0.5,0.5-1.2,0.9-2.1,0.9c-0.9,0-1.6-0.3-2.1-0.9c-0.8-0.8-0.8-1.8-0.8-3.1c0-1.4,0-2.3,0.8-3.1
				c0.5-0.5,1.2-0.9,2.1-0.9c0.9,0,1.6,0.3,2.1,0.9c0.8,0.8,0.8,1.8,0.8,3.1C89.1,56.7,89.1,57.7,88.3,58.5z M87.2,53.2
				c-0.2-0.3-0.6-0.4-1-0.4s-0.8,0.2-1,0.4c-0.3,0.3-0.4,0.7-0.4,2.2c0,1.5,0.1,1.9,0.4,2.2c0.2,0.3,0.6,0.4,1,0.4s0.8-0.2,1-0.4
				c0.3-0.3,0.4-0.7,0.4-2.2C87.6,53.9,87.5,53.5,87.2,53.2z"/>
			<path d="M94.8,59.3l-1.5-3.1h-1.1v3.1h-1.5v-7.8h3.1c1.6,0,2.5,1.1,2.5,2.4c0,1.1-0.7,1.8-1.4,2.1l1.7,3.4H94.8z M93.6,52.8h-1.4
				v2.1h1.4c0.7,0,1.1-0.4,1.1-1C94.7,53.3,94.3,52.8,93.6,52.8z"/>
			<path d="M103.4,59.3v-4.6l-1.5,3h-1l-1.5-3v4.6h-1.5v-7.8h1.5l2,4.2l2-4.2h1.5v7.8H103.4z"/>
		</g>
		<g class="st8">
			<path d="M111.5,59.3l-0.5-1.4h-2.8l-0.5,1.4h-1.6l2.8-7.8h1.2l2.9,7.8H111.5z M109.7,53.8l-1,2.8h1.9L109.7,53.8z"/>
		</g>
		<g class="st8">
			<path d="M116.6,52.8v6.5H115v-6.5h-2v-1.4h5.6v1.4H116.6z"/>
			<path d="M119.9,59.3v-7.8h1.5v7.8H119.9z"/>
			<path d="M125.8,59.4c-0.8,0-1.5-0.3-2.1-0.9c-0.3-0.3-0.5-0.7-0.6-1.2c-0.1-0.4-0.1-1.1-0.1-1.9c0-0.9,0-1.5,0.1-1.9
				c0.1-0.5,0.3-0.8,0.6-1.2c0.6-0.6,1.3-0.9,2.1-0.9c1.5,0,2.6,0.9,2.9,2.5h-1.6c-0.2-0.7-0.6-1.1-1.3-1.1c-0.4,0-0.7,0.1-1,0.4
				c-0.3,0.3-0.4,0.7-0.4,2.2c0,1.5,0.1,1.9,0.4,2.2c0.2,0.3,0.6,0.4,1,0.4c0.7,0,1.2-0.4,1.3-1.1h1.6
				C128.4,58.5,127.3,59.4,125.8,59.4z"/>
		</g>
		<g class="st8">
			<path d="M132.5,59.4c-1.2,0-2.1-0.3-2.9-1l1-1c0.5,0.5,1.2,0.7,1.9,0.7c0.9,0,1.4-0.3,1.4-1c0-0.3-0.1-0.5-0.2-0.7
				c-0.2-0.1-0.3-0.2-0.7-0.3l-0.9-0.1c-0.7-0.1-1.2-0.3-1.5-0.6c-0.4-0.4-0.6-0.9-0.6-1.5c0-1.4,1-2.4,2.7-2.4
				c1.1,0,1.9,0.3,2.5,0.9l-1,1c-0.5-0.5-1.1-0.5-1.6-0.5c-0.8,0-1.2,0.5-1.2,1c0,0.2,0.1,0.4,0.2,0.6c0.2,0.1,0.4,0.3,0.7,0.3
				l0.9,0.1c0.7,0.1,1.2,0.3,1.5,0.6c0.4,0.4,0.6,1,0.6,1.7C135.4,58.5,134.2,59.4,132.5,59.4z"/>
		</g>
		<g class="st8">
			<path d="M108.9,68.4c-0.7,0-1.3-0.3-1.8-0.7c-0.7-0.7-0.7-1.4-0.7-2.9c0-1.5,0-2.2,0.7-2.9c0.5-0.5,1.1-0.7,1.8-0.7
				c1.3,0,2.2,0.8,2.5,2.1h-0.8c-0.2-0.9-0.8-1.4-1.7-1.4c-0.5,0-0.9,0.2-1.2,0.5c-0.4,0.5-0.5,1-0.5,2.4c0,1.5,0.1,2,0.5,2.4
				c0.3,0.3,0.8,0.5,1.2,0.5c0.9,0,1.5-0.6,1.7-1.4h0.8C111.1,67.6,110.1,68.4,108.9,68.4z"/>
			<path d="M113.3,66c0,1.1,0.5,1.7,1.4,1.7c0.6,0,0.9-0.2,1.3-0.6l0.5,0.4c-0.5,0.5-1,0.8-1.8,0.8c-1.3,0-2.1-0.8-2.1-2.5
				c0-1.6,0.8-2.5,2-2.5c1.3,0,2,0.9,2,2.4V66H113.3z M115.8,64.7c-0.2-0.5-0.6-0.7-1.1-0.7s-1,0.3-1.1,0.7
				c-0.1,0.3-0.1,0.4-0.2,0.8h2.6C115.9,65.1,115.9,64.9,115.8,64.7z"/>
			<path d="M121.3,68.3v-3c0-0.9-0.5-1.3-1.2-1.3c-0.7,0-1.2,0.5-1.2,1.3v3h-0.7v-4.9h0.7v0.5c0.3-0.4,0.8-0.6,1.4-0.6
				c0.5,0,1,0.2,1.3,0.5c0.3,0.3,0.5,0.8,0.5,1.4v3.1H121.3z"/>
		</g>
		<g class="st8">
			<path d="M125.2,68.3c-0.8,0-1.3-0.6-1.3-1.3v-3h-0.6v-0.5h0.6v-1.5h0.7v1.5h1V64h-1v3c0,0.4,0.2,0.7,0.7,0.7h0.4v0.6H125.2z"/>
		</g>
		<g class="st8">
			<path d="M127.5,66c0,1.1,0.5,1.7,1.4,1.7c0.6,0,0.9-0.2,1.3-0.6l0.5,0.4c-0.5,0.5-1,0.8-1.8,0.8c-1.3,0-2.1-0.8-2.1-2.5
				c0-1.6,0.8-2.5,2-2.5c1.3,0,2,0.9,2,2.4V66H127.5z M129.9,64.7c-0.2-0.5-0.6-0.7-1.1-0.7s-1,0.3-1.1,0.7
				c-0.1,0.3-0.1,0.4-0.2,0.8h2.6C130,65.1,130,64.9,129.9,64.7z"/>
			<path d="M135.1,64.3c-0.3-0.3-0.5-0.4-0.8-0.4c-0.7,0-1.2,0.6-1.2,1.3v3h-0.7v-4.9h0.7V64c0.3-0.4,0.8-0.7,1.4-0.7
				c0.5,0,0.8,0.1,1.2,0.5L135.1,64.3z"/>
		</g>
		<ellipse transform="matrix(0.8571 -0.5151 0.5151 0.8571 -19.9688 38.8366)" class="st9" cx="60" cy="55.4" rx="3.7" ry="3.7"/>
	</g>
	<line class="st0" x1="11.7" y1="63.7" x2="104.5" y2="63.7"/>
</g>
</svg>
